<?xml version="1.0" encoding="UTF-8" standalone="no"?>
<!-- Created with Inkscape (http://www.inkscape.org/) -->

<svg
   xmlns:dc="http://purl.org/dc/elements/1.1/"
   xmlns:cc="http://creativecommons.org/ns#"
   xmlns:rdf="http://www.w3.org/1999/02/22-rdf-syntax-ns#"
   xmlns:svg="http://www.w3.org/2000/svg"
   xmlns="http://www.w3.org/2000/svg"
   xmlns:sodipodi="http://sodipodi.sourceforge.net/DTD/sodipodi-0.dtd"
   xmlns:inkscape="http://www.inkscape.org/namespaces/inkscape"
   width="793.70081"
   height="1122.5197"
   id="svg2"
   version="1.1"
   inkscape:version="0.92.0 r"
   sodipodi:docname="gps_icon.svg">
  <defs
     id="defs4" />
  <sodipodi:namedview
     id="base"
     pagecolor="#ffffff"
     bordercolor="#666666"
     borderopacity="1.0"
     inkscape:pageopacity="0.0"
     inkscape:pageshadow="2"
     inkscape:zoom="0.24748737"
     inkscape:cx="183.35568"
     inkscape:cy="428.5596"
     inkscape:document-units="px"
     inkscape:current-layer="layer1"
     showgrid="false"
     inkscape:window-width="1366"
     inkscape:window-height="704"
     inkscape:window-x="0"
     inkscape:window-y="27"
     inkscape:window-maximized="1" />
  <metadata
     id="metadata7">
    <rdf:RDF>
      <cc:Work
         rdf:about="">
        <dc:format>image/svg+xml</dc:format>
        <dc:type
           rdf:resource="http://purl.org/dc/dcmitype/StillImage" />
        <dc:title />
      </cc:Work>
    </rdf:RDF>
  </metadata>
  <g
     inkscape:label="Layer 1"
     inkscape:groupmode="layer"
     id="layer1">
    <path
       sodipodi:nodetypes="ssssssssssssssssss"
       inkscape:connector-curvature="0"
       id="path3812"
       d="m 506.03647,603.16945 c -6.29616,-4.93448 -15.06179,-5.68001 -20.71823,-0.0236 l -10.07122,10.07122 c -5.65644,5.65644 -4.74259,14.29372 0.0236,20.71823 l 51.09689,68.87556 c 4.76616,6.42451 15.03822,5.65644 20.69465,0 l 26.23367,-26.23366 c 5.65643,-5.65644 6.29615,-15.76017 0,-20.69466 z m -9.05097,9.05097 67.25933,52.71312 c 0.88909,0.69681 0.79875,1.79397 0,2.59272 l -26.23366,26.23367 c -0.79875,0.79875 -1.91969,0.90721 -2.59273,0 l -51.09688,-68.87557 c -0.67304,-0.90722 -0.82233,-1.81754 -0.0236,-2.6163 l 10.07123,-10.07122 c 0.79875,-0.79875 1.72721,-0.67323 2.61629,0.0236 z"
       style="color:#000000;font-style:normal;font-variant:normal;font-weight:normal;font-stretch:normal;font-size:medium;line-height:normal;font-family:Sans;-inkscape-font-specification:Sans;text-indent:0;text-align:start;text-decoration:none;text-decoration-line:none;letter-spacing:normal;word-spacing:normal;text-transform:none;writing-mode:lr-tb;direction:ltr;baseline-shift:baseline;text-anchor:start;display:inline;overflow:visible;visibility:visible;fill:#000000;fill-opacity:1;stroke:none;stroke-width:12.80000019;marker:none;enable-background:accumulate"
       inkscape:export-filename="/home/przemo/sat.png"
       inkscape:export-xdpi="41.860001"
       inkscape:export-ydpi="41.860001" />
    <path
       style="color:#000000;font-style:normal;font-variant:normal;font-weight:normal;font-stretch:normal;font-size:medium;line-height:normal;font-family:Sans;-inkscape-font-specification:Sans;text-indent:0;text-align:start;text-decoration:none;text-decoration-line:none;letter-spacing:normal;word-spacing:normal;text-transform:none;writing-mode:lr-tb;direction:ltr;baseline-shift:baseline;text-anchor:start;display:inline;overflow:visible;visibility:visible;fill:#000000;fill-opacity:1;stroke:none;stroke-width:12.80000019;marker:none;enable-background:accumulate"
       d="m 439.12396,536.25694 c 4.93448,6.29616 5.68001,15.06179 0.0236,20.71823 l -10.07122,10.07122 c -5.65644,5.65644 -14.29372,4.74259 -20.71823,-0.0236 L 339.48255,515.9259 c -6.42451,-4.76616 -5.65644,-15.03822 0,-20.69466 l 26.23366,-26.23366 c 5.65644,-5.65644 15.76017,-6.29615 20.69466,0 z m -9.05097,9.05096 -52.71312,-67.25932 c -0.69681,-0.88909 -1.79397,-0.79876 -2.59272,0 l -26.23367,26.23366 c -0.79875,0.79876 -0.90721,1.91969 0,2.59273 l 68.87557,51.09688 c 0.90722,0.67304 1.81754,0.82233 2.61629,0.0236 l 10.07123,-10.07122 c 0.79875,-0.79875 0.67323,-1.72721 -0.0236,-2.6163 z"
       id="rect2985-0"
       inkscape:connector-curvature="0"
       sodipodi:nodetypes="ssssssssssssssssss"
       inkscape:export-filename="/home/przemo/sat.png"
       inkscape:export-xdpi="41.860001"
       inkscape:export-ydpi="41.860001" />
    <rect
       style="color:#000000;display:inline;overflow:visible;visibility:visible;fill:none;stroke:#000000;stroke-width:12.80000019;stroke-linecap:round;stroke-linejoin:round;stroke-miterlimit:4;stroke-dasharray:none;stroke-opacity:1;marker:none;enable-background:accumulate"
       id="rect2985-0-1"
       width="71.430374"
       height="29.908567"
       x="55.883175"
       y="-751.96704"
       ry="10.009531"
       transform="rotate(135)"
       inkscape:export-filename="/home/przemo/sat.png"
       inkscape:export-xdpi="41.860001"
       inkscape:export-ydpi="41.860001" />
    <path
       style="color:#000000;display:inline;overflow:visible;visibility:visible;fill:none;stroke:#000000;stroke-width:25.60000038;stroke-linecap:round;stroke-linejoin:round;stroke-miterlimit:4;stroke-dasharray:none;stroke-opacity:1;marker:none;enable-background:accumulate"
       d="m 377.94186,612.00153 c -14.45446,14.45445 -14.43089,37.89501 0.0236,52.34947 14.45445,14.45445 37.87144,14.45445 52.3259,0"
       id="path3816"
       inkscape:connector-curvature="0"
       inkscape:export-filename="/home/przemo/sat.png"
       inkscape:export-xdpi="41.860001"
       inkscape:export-ydpi="41.860001"
       sodipodi:nodetypes="csc" />
    <path
       style="color:#000000;display:inline;overflow:visible;visibility:visible;fill:none;stroke:#000000;stroke-width:25.60000038;stroke-linecap:round;stroke-linejoin:round;stroke-miterlimit:4;stroke-dasharray:none;stroke-opacity:1;marker:none;enable-background:accumulate"
       d="m 347.06485,581.12452 c -31.51114,31.51116 -31.51114,82.61589 0,114.12704 31.51116,31.51115 82.59232,31.48759 114.10347,-0.0236"
       id="path3818"
       inkscape:connector-curvature="0"
       inkscape:export-filename="/home/przemo/sat.png"
       inkscape:export-xdpi="41.860001"
       inkscape:export-ydpi="41.860001"
       sodipodi:nodetypes="csc" />
    <path
       style="color:#000000;display:inline;overflow:visible;visibility:visible;fill:none;stroke:#000000;stroke-width:25.60000038;stroke-linecap:round;stroke-linejoin:round;stroke-miterlimit:4;stroke-dasharray:none;stroke-opacity:1;marker:none;enable-background:accumulate"
       d="m 316.61259,552.17833 c -47.91482,47.91481 -47.91483,125.62296 -1e-5,173.53778 47.91481,47.91481 125.58713,47.87897 173.50195,-0.0358"
       id="path3818-1"
       inkscape:connector-curvature="0"
       inkscape:export-filename="/home/przemo/sat.png"
       inkscape:export-xdpi="41.860001"
       inkscape:export-ydpi="41.860001"
       sodipodi:nodetypes="csc" />
  </g>
</svg>
